<?xml version="1.0" encoding="UTF-8"?>
<svg width="295px" height="240px" viewBox="0 0 295 240" version="1.1" xmlns="http://www.w3.org/2000/svg" xmlns:xlink="http://www.w3.org/1999/xlink">
    <!-- Generator: Sketch 49.1 (51147) - http://www.bohemiancoding.com/sketch -->
    <title>undraw_live_collaboration_2r4y</title>
    <desc>Created with Sketch.</desc>
    <defs>
        <linearGradient x1="50.0010736%" y1="100%" x2="50.0010736%" y2="0%" id="linearGradient-1">
            <stop stop-color="#808080" stop-opacity="0.25" offset="0%"></stop>
            <stop stop-color="#808080" stop-opacity="0.12" offset="54%"></stop>
            <stop stop-color="#808080" stop-opacity="0.1" offset="100%"></stop>
        </linearGradient>
        <linearGradient x1="30314%" y1="54835%" x2="30314%" y2="11867%" id="linearGradient-2">
            <stop stop-color="#808080" stop-opacity="0.25" offset="0%"></stop>
            <stop stop-color="#808080" stop-opacity="0.12" offset="54%"></stop>
            <stop stop-color="#808080" stop-opacity="0.1" offset="100%"></stop>
        </linearGradient>
        <linearGradient x1="73030%" y1="70319%" x2="73030%" y2="44462%" id="linearGradient-3">
            <stop stop-color="#808080" stop-opacity="0.25" offset="0%"></stop>
            <stop stop-color="#808080" stop-opacity="0.12" offset="54%"></stop>
            <stop stop-color="#808080" stop-opacity="0.1" offset="100%"></stop>
        </linearGradient>
        <linearGradient x1="73271%" y1="25857%" x2="73271%" y2="0%" id="linearGradient-4">
            <stop stop-color="#808080" stop-opacity="0.25" offset="0%"></stop>
            <stop stop-color="#808080" stop-opacity="0.12" offset="54%"></stop>
            <stop stop-color="#808080" stop-opacity="0.1" offset="100%"></stop>
        </linearGradient>
    </defs>
    <g id="Page-1" stroke="none" stroke-width="1" fill="none" fill-rule="evenodd">
        <g id="Desktop-HD" transform="translate(-978.000000, -562.000000)">
            <g id="Group-4" transform="translate(168.000000, 549.000000)">
                <g id="undraw_live_collaboration_2r4y" transform="translate(810.000000, 13.000000)">
                    <g id="Group" opacity="0.5" transform="translate(0.000000, 6.479315)" fill="url(#linearGradient-1)" fill-rule="nonzero">
                        <rect id="Rectangle-path" x="0" y="0.129586294" width="158.946792" height="146.527997" rx="1.53457453"></rect>
                    </g>
                    <rect id="Rectangle-path" fill="#FDFDFD" fill-rule="nonzero" x="1.93858362" y="7.74448614" width="155.28123" height="142.974604" rx="1.53457453"></rect>
                    <rect id="Rectangle-path" fill="#FF5000" fill-rule="nonzero" x="13.9079723" y="31.29509" width="26.1879438" height="23.5506038" rx="1.53457453"></rect>
                    <rect id="Rectangle-path" fill="#E0E0E0" fill-rule="nonzero" x="47.9492275" y="31.29509" width="104.103305" height="2.61559704" rx="1.17309698"></rect>
                    <rect id="Rectangle-path" fill="#E0E0E0" fill-rule="nonzero" x="47.9492275" y="39.1452912" width="104.103305" height="2.61559704" rx="1.17309698"></rect>
                    <rect id="Rectangle-path" fill="#E0E0E0" fill-rule="nonzero" x="11.2867888" y="67.6372251" width="140.765744" height="2.61559704" rx="1.17309698"></rect>
                    <rect id="Rectangle-path" fill="#E0E0E0" fill-rule="nonzero" x="11.2867888" y="75.4840162" width="140.765744" height="2.61559704" rx="1.17309698"></rect>
                    <rect id="Rectangle-path" fill="#E0E0E0" fill-rule="nonzero" x="11.2867888" y="85.9532247" width="140.765744" height="2.61559704" rx="1.17309698"></rect>
                    <rect id="Rectangle-path" fill="#E0E0E0" fill-rule="nonzero" x="11.2867888" y="93.8000158" width="81.181602" height="2.61559704" rx="1.17309698"></rect>
                    <rect id="Rectangle-path" fill="#E0E0E0" fill-rule="nonzero" x="11.2867888" y="104.241943" width="140.765744" height="2.61559704" rx="1.17309698"></rect>
                    <rect id="Rectangle-path" fill="#E0E0E0" fill-rule="nonzero" x="11.2867888" y="112.092144" width="140.765744" height="2.61559704" rx="1.17309698"></rect>
                    <rect id="Rectangle-path" fill="#E0E0E0" fill-rule="nonzero" x="11.2867888" y="122.557943" width="140.765744" height="2.61559704" rx="1.17309698"></rect>
                    <rect id="Rectangle-path" fill="#E0E0E0" fill-rule="nonzero" x="11.2867888" y="130.408144" width="81.181602" height="2.61559704" rx="1.17309698"></rect>
                    <g id="Group" opacity="0.5" transform="translate(23.890995, 40.239954)" fill="url(#linearGradient-2)" fill-rule="nonzero">
                        <rect id="Rectangle-path" x="0.0989769805" y="0.228481097" width="158.946792" height="146.527997" rx="1.53457453"></rect>
                    </g>
                    <rect id="Rectangle-path" fill="#FFFFFF" fill-rule="nonzero" x="25.9285559" y="41.6040207" width="155.28123" height="142.974604" rx="1.53457453"></rect>
                    <rect id="Rectangle-path" fill="#FF5000" fill-rule="nonzero" x="37.8945315" y="65.1546245" width="26.1879438" height="23.5506038" rx="1.53457453"></rect>
                    <rect id="Rectangle-path" fill="#E0E0E0" fill-rule="nonzero" x="71.9391998" y="65.1546245" width="104.103305" height="2.61559704" rx="1.17309698"></rect>
                    <rect id="Rectangle-path" fill="#E0E0E0" fill-rule="nonzero" x="71.9391998" y="73.0048258" width="104.103305" height="2.61559704" rx="1.17309698"></rect>
                    <rect id="Rectangle-path" fill="#E0E0E0" fill-rule="nonzero" x="35.276761" y="101.49676" width="140.765744" height="2.61559704" rx="1.17309698"></rect>
                    <rect id="Rectangle-path" fill="#E0E0E0" fill-rule="nonzero" x="35.276761" y="109.346961" width="140.765744" height="2.61559704" rx="1.17309698"></rect>
                    <rect id="Rectangle-path" fill="#E0E0E0" fill-rule="nonzero" x="35.276761" y="119.812759" width="140.765744" height="2.61559704" rx="1.17309698"></rect>
                    <rect id="Rectangle-path" fill="#E0E0E0" fill-rule="nonzero" x="35.276761" y="127.66296" width="81.181602" height="2.61559704" rx="1.17309698"></rect>
                    <rect id="Rectangle-path" fill="#E0E0E0" fill-rule="nonzero" x="35.276761" y="138.101477" width="140.765744" height="2.61559704" rx="1.17309698"></rect>
                    <rect id="Rectangle-path" fill="#E0E0E0" fill-rule="nonzero" x="35.276761" y="145.951679" width="140.765744" height="2.61559704" rx="1.17309698"></rect>
                    <rect id="Rectangle-path" fill="#E0E0E0" fill-rule="nonzero" x="35.276761" y="156.417477" width="140.765744" height="2.61559704" rx="1.17309698"></rect>
                    <rect id="Rectangle-path" fill="#E0E0E0" fill-rule="nonzero" x="35.276761" y="164.267678" width="81.181602" height="2.61559704" rx="1.17309698"></rect>
                    <path d="M182.936764,94.3729236 L184.424832,92.9679353" id="Shape" stroke="#535461" stroke-width="0.600189151"></path>
                    <path d="M187.544313,90.0181421 L242.135237,38.4018751" id="Shape" stroke="#535461" stroke-width="0.600189151" stroke-dasharray="4.289988218432796"></path>
                    <path d="M243.694978,36.9252734 L245.179633,35.5202852" id="Shape" stroke="#535461" stroke-width="0.600189151"></path>
                    <path d="M183.493083,145.951679 L185.018694,147.319155" id="Shape" stroke="#535461" stroke-width="0.600189151"></path>
                    <path d="M188.179131,150.153003 L243.479959,199.757272" id="Shape" stroke="#535461" stroke-width="0.600189151" stroke-dasharray="4.24224588992822"></path>
                    <path d="M245.060178,201.175901 L246.582375,202.539967" id="Shape" stroke="#535461" stroke-width="0.600189151"></path>
                    <g id="Group" opacity="0.5" transform="translate(205.121260, 151.411354)" fill="url(#linearGradient-3)" fill-rule="nonzero">
                        <ellipse id="Oval" cx="44.1300813" cy="44.3014617" rx="44.1266683" ry="44.0900314"></ellipse>
                    </g>
                    <ellipse id="Oval" fill="#F5F5F5" fill-rule="nonzero" cx="249.251341" cy="195.470694" rx="43.1949195" ry="43.1590562"></ellipse>
                    <path d="M273.142336,199.358283 C273.142336,215.253065 262.759992,232.948414 249.957832,232.948414 C237.155671,232.948414 226.773327,215.249654 226.773327,199.358283 C226.773327,183.466911 237.155671,175.395049 249.957832,175.395049 C262.759992,175.395049 273.142336,183.46009 273.142336,199.358283 Z" id="Shape" fill="#FDD835" fill-rule="nonzero"></path>
                    <path d="M249.374209,238.759336 C257.814797,238.77224 266.072565,236.303015 273.118445,231.659371 C271.527987,222.966859 265.469914,222.472385 265.469914,222.472385 L232.083954,222.472385 C232.083954,222.472385 226.36718,222.942988 224.575356,230.936416 C231.835527,236.03875 240.498003,238.77137 249.374209,238.759336 Z" id="Shape" fill="#FF5000" fill-rule="nonzero"></path>
                    <path d="M242.189845,211.87018 L255.548325,211.87018 L255.548325,223.239673 C255.548325,226.543125 252.868122,229.221103 249.561924,229.221103 L248.176246,229.221103 C244.870048,229.221103 242.189845,226.543125 242.189845,223.239673 L242.189845,211.87018 Z" id="Shape" fill="#000000" fill-rule="nonzero" opacity="0.1"></path>
                    <path d="M243.346852,211.375706 L254.422035,211.375706 C255.053492,211.375706 255.56539,211.887179 255.56539,212.518112 L255.56539,222.748609 C255.56539,226.052062 252.885187,228.730039 249.578989,228.730039 L248.193311,228.730039 C244.887113,228.730039 242.20691,226.052062 242.20691,222.748609 L242.20691,212.518112 C242.206907,211.888508 242.716728,211.377586 243.346852,211.375706 Z" id="Shape" fill="#FDB797" fill-rule="nonzero"></path>
                    <path d="M242.213736,216.913815 C246.518934,218.521315 251.258043,218.534623 255.572216,216.951327 L255.572216,215.311037 L242.213736,215.311037 L242.213736,216.913815 Z" id="Shape" fill="#000000" fill-rule="nonzero" opacity="0.1"></path>
                    <ellipse id="Oval" fill="#FDB797" fill-rule="nonzero" cx="248.92028" cy="198.672839" rx="19.1469262" ry="19.1310292"></ellipse>
                    <ellipse id="Oval" fill="#FDB797" fill-rule="nonzero" cx="230.165849" cy="197.85781" rx="1.78158565" ry="3.33855215"></ellipse>
                    <ellipse id="Oval" fill="#FDB797" fill-rule="nonzero" cx="267.572321" cy="197.85781" rx="1.78158565" ry="3.33855215"></ellipse>
                    <path d="M231.950847,188.295705 C231.950847,188.295705 242.790533,203.109465 267.603038,198.045369 C267.603038,198.045369 270.374394,194.676125 263.626894,184.326273 C256.879394,173.97642 238.094246,175.661042 231.950847,188.295705 Z" id="Shape" fill="#000000" fill-rule="nonzero" opacity="0.1"></path>
                    <path d="M231.950847,188.056994 C231.950847,188.056994 242.790533,202.860523 267.603038,197.806657 C267.603038,197.806657 270.374394,194.437414 263.626894,184.087561 C256.879394,173.737708 238.094246,175.41892 231.950847,188.056994 Z" id="Shape" fill="#FDD835" fill-rule="nonzero"></path>
                    <g id="Group" opacity="0.5" transform="translate(205.803859, 0.000000)" fill="url(#linearGradient-4)" fill-rule="nonzero">
                        <ellipse id="Oval" cx="44.2700143" cy="44.0900314" rx="44.1266683" ry="44.0900314"></ellipse>
                    </g>
                    <ellipse id="Oval" fill="#F5F5F5" fill-rule="nonzero" cx="250.162612" cy="43.8069877" rx="43.1949195" ry="43.1590562"></ellipse>
                    <path d="M250.196742,87.1365521 C258.63733,87.1494555 266.895098,84.6802306 273.940978,80.0365873 C272.35052,71.3440751 266.292447,70.8496011 266.292447,70.8496011 L232.892835,70.8496011 C232.892835,70.8496011 227.176061,71.3202039 225.384237,79.3136322 C232.648217,84.4186514 241.315878,87.1514031 250.196742,87.1365521 Z" id="Shape" fill="#FF5000" fill-rule="nonzero"></path>
                    <ellipse id="Oval" fill="#333333" fill-rule="nonzero" cx="249.742813" cy="42.8964734" rx="20.8500129" ry="20.8327018"></ellipse>
                    <path d="M243.005552,60.2473961 L256.364031,60.2473961 L256.364031,71.6134782 C256.364031,74.916931 253.683829,77.5949087 250.377631,77.5949087 L248.991953,77.5949087 C245.685755,77.5949087 243.005552,74.916931 243.005552,71.6134782 L243.005552,60.2473961 Z" id="Shape" fill="#000000" fill-rule="nonzero" opacity="0.1"></path>
                    <path d="M244.155733,59.7529221 L255.230916,59.7529221 C255.862373,59.7529221 256.37427,60.2643945 256.37427,60.8953276 L256.37427,71.1258245 C256.37427,74.4292774 253.694068,77.107255 250.38787,77.107255 L249.002192,77.107255 C247.412726,77.1099713 245.88743,76.4809861 244.762547,75.3589557 C243.637663,74.2369254 243.00555,72.7139726 243.005552,71.1258245 L243.005552,60.8953276 C243.005547,60.5911574 243.126943,60.2995437 243.342843,60.085104 C243.558742,59.8706643 243.851315,59.7511062 244.155733,59.7529221 Z" id="Shape" fill="#A57058" fill-rule="nonzero"></path>
                    <path d="M243.039682,65.2910311 C247.34488,66.8985309 252.083988,66.9118388 256.398161,65.3285429 L256.398161,63.6882533 L243.039682,63.6882533 L243.039682,65.2910311 Z" id="Shape" fill="#000000" fill-rule="nonzero" opacity="0.1"></path>
                    <ellipse id="Oval" fill="#A57058" fill-rule="nonzero" cx="249.742813" cy="47.0500552" rx="19.1469262" ry="19.1310292"></ellipse>
                    <path d="M236.104467,29.64798 C236.104467,29.64798 244.172798,46.016775 266.937503,36.5092332 L261.637115,28.2054799 L252.241128,24.8362363 L236.104467,29.64798 Z" id="Shape" fill="#000000" fill-rule="nonzero" opacity="0.1"></path>
                    <path d="M236.104467,29.4092684 C236.104467,29.4092684 244.172798,45.7780634 266.937503,36.2705216 L261.637115,27.9633581 L252.241128,24.5941145 L236.104467,29.4092684 Z" id="Shape" fill="#333333" fill-rule="nonzero"></path>
                    <path d="M236.032794,28.3009645 C236.573266,26.6185534 237.509569,25.0901385 238.763194,23.8438781 C242.517493,20.1233874 248.705261,19.3390493 251.872524,15.0968032 C252.221079,15.7036188 252.296395,16.4294598 252.079845,17.0948151 C251.863294,17.7601705 251.375099,18.3029124 250.735996,18.5888128 C253.766739,18.5683518 257.285541,18.3023589 259.00228,15.8061177 C259.868209,17.8190595 259.496171,20.1503279 258.04664,21.7943685 C260.736084,21.9171345 263.606416,23.7415731 263.780479,26.4253735 C263.896521,28.2123002 262.773644,29.9071526 261.302641,30.9336124 C259.831639,31.9600723 258.053466,32.4306751 256.299184,32.8160238 C251.19675,33.9447887 232.694881,38.6678681 236.032794,28.3009645 Z" id="Shape" fill="#333333" fill-rule="nonzero"></path>
                    <ellipse id="Oval" fill="#A57058" fill-rule="nonzero" cx="230.585648" cy="47.0330043" rx="1.78158565" ry="3.33855215"></ellipse>
                    <ellipse id="Oval" fill="#A57058" fill-rule="nonzero" cx="268.889739" cy="47.0330043" rx="1.78158565" ry="3.33855215"></ellipse>
                </g>
            </g>
        </g>
    </g>
</svg>