<?xml version="1.0" encoding="UTF-8"?>
<svg width="352px" height="204px" viewBox="0 0 352 204" version="1.1" xmlns="http://www.w3.org/2000/svg" xmlns:xlink="http://www.w3.org/1999/xlink">
    <!-- Generator: Sketch 49.1 (51147) - http://www.bohemiancoding.com/sketch -->
    <title>undraw_notes1_cf55</title>
    <desc>Created with Sketch.</desc>
    <defs>
        <linearGradient x1="50%" y1="100%" x2="50%" y2="0%" id="linearGradient-1">
            <stop stop-color="#808080" stop-opacity="0.25" offset="0%"></stop>
            <stop stop-color="#808080" stop-opacity="0.12" offset="54%"></stop>
            <stop stop-color="#808080" stop-opacity="0.1" offset="100%"></stop>
        </linearGradient>
        <linearGradient x1="35648%" y1="40911%" x2="35648%" y2="11828%" id="linearGradient-2">
            <stop stop-color="#808080" stop-opacity="0.25" offset="0%"></stop>
            <stop stop-color="#808080" stop-opacity="0.12" offset="54%"></stop>
            <stop stop-color="#808080" stop-opacity="0.1" offset="100%"></stop>
        </linearGradient>
        <linearGradient x1="50298%" y1="52739%" x2="50298%" y2="23657%" id="linearGradient-3">
            <stop stop-color="#808080" stop-opacity="0.25" offset="0%"></stop>
            <stop stop-color="#808080" stop-opacity="0.12" offset="54%"></stop>
            <stop stop-color="#808080" stop-opacity="0.1" offset="100%"></stop>
        </linearGradient>
        <linearGradient x1="91216%" y1="68894%" x2="91216%" y2="28180%" id="linearGradient-4">
            <stop stop-color="#808080" stop-opacity="0.25" offset="0%"></stop>
            <stop stop-color="#808080" stop-opacity="0.12" offset="54%"></stop>
            <stop stop-color="#808080" stop-opacity="0.1" offset="100%"></stop>
        </linearGradient>
    </defs>
    <g id="Page-1" stroke="none" stroke-width="1" fill="none" fill-rule="evenodd">
        <g id="Desktop-HD" transform="translate(-203.000000, -1010.000000)">
            <g id="Group-5" transform="translate(148.000000, 939.000000)">
                <g id="undraw_notes1_cf55">
                    <g id="Group" opacity="0.5" transform="translate(55.832545, 71.923077)" fill="url(#linearGradient-1)" fill-rule="nonzero">
                        <rect id="Rectangle-path" x="0" y="0" width="161.706452" height="111.857692"></rect>
                    </g>
                    <rect id="Rectangle-path" fill="#FDFDFD" fill-rule="nonzero" x="57.5036708" y="73.5923077" width="158.780057" height="108.934615"></rect>
                    <g id="Group" opacity="0.5" transform="translate(80.090823, 107.307692)" fill="#FF5000" fill-rule="nonzero">
                        <ellipse id="Oval" cx="3.21518448" cy="3.22307692" rx="2.92639546" ry="2.92307692"></ellipse>
                        <ellipse id="Oval" cx="3.21518448" cy="20.7538462" rx="2.92639546" ry="2.92307692"></ellipse>
                        <ellipse id="Oval" cx="3.21518448" cy="38.2807692" rx="2.92639546" ry="2.92307692"></ellipse>
                    </g>
                    <rect id="Rectangle-path" fill="#E0E0E0" fill-rule="nonzero" x="104.826566" y="108.861538" width="88.585071" height="3.33846154"></rect>
                    <rect id="Rectangle-path" fill="#E0E0E0" fill-rule="nonzero" x="104.826566" y="126.388462" width="88.585071" height="3.33846154"></rect>
                    <rect id="Rectangle-path" fill="#E0E0E0" fill-rule="nonzero" x="104.826566" y="143.919231" width="88.585071" height="3.33846154"></rect>
                    <g id="Group" opacity="0.5" transform="translate(112.050142, 117.307692)" fill="url(#linearGradient-2)" fill-rule="nonzero">
                        <rect id="Rectangle-path" x="0.192526017" y="0.107692308" width="161.706452" height="111.857692"></rect>
                    </g>
                    <rect id="Rectangle-path" fill="#FDFDFD" fill-rule="nonzero" x="113.913794" y="119.084615" width="158.780057" height="108.934615"></rect>
                    <g id="Group" opacity="0.5" transform="translate(136.693472, 153.076923)" fill="#FF5000" fill-rule="nonzero">
                        <ellipse id="Oval" cx="3.02265847" cy="2.94615385" rx="2.92639546" ry="2.92307692"></ellipse>
                        <ellipse id="Oval" cx="3.02265847" cy="20.4769231" rx="2.92639546" ry="2.92307692"></ellipse>
                        <ellipse id="Oval" cx="3.02265847" cy="38.0076923" rx="2.92639546" ry="2.92307692"></ellipse>
                    </g>
                    <rect id="Rectangle-path" fill="#E0E0E0" fill-rule="nonzero" x="161.232838" y="154.353846" width="88.585071" height="3.33846154"></rect>
                    <rect id="Rectangle-path" fill="#E0E0E0" fill-rule="nonzero" x="161.232838" y="171.884615" width="88.585071" height="3.33846154"></rect>
                    <rect id="Rectangle-path" fill="#E0E0E0" fill-rule="nonzero" x="161.232838" y="189.411538" width="88.585071" height="3.33846154"></rect>
                    <g id="Group" opacity="0.5" transform="translate(168.652791, 162.692308)" fill="url(#linearGradient-3)" fill-rule="nonzero">
                        <rect id="Rectangle-path" x="0" y="0.219230769" width="161.706452" height="111.857692"></rect>
                    </g>
                    <rect id="Rectangle-path" fill="#FDFDFD" fill-rule="nonzero" x="170.323917" y="164.580769" width="158.780057" height="108.934615"></rect>
                    <ellipse id="Oval" fill="#FF5000" fill-rule="nonzero" cx="196.126254" cy="201.515385" rx="2.92639546" ry="2.92307692"></ellipse>
                    <ellipse id="Oval" fill="#FF5000" fill-rule="nonzero" cx="196.126254" cy="219.046154" rx="2.92639546" ry="2.92307692"></ellipse>
                    <ellipse id="Oval" fill="#FF5000" fill-rule="nonzero" cx="196.126254" cy="236.576923" rx="2.92639546" ry="2.92307692"></ellipse>
                    <rect id="Rectangle-path" fill="#DFDFDF" fill-rule="nonzero" x="217.642961" y="199.846154" width="88.585071" height="3.33846154"></rect>
                    <rect id="Rectangle-path" fill="#DFDFDF" fill-rule="nonzero" x="217.642961" y="217.376923" width="88.585071" height="3.33846154"></rect>
                    <rect id="Rectangle-path" fill="#DFDFDF" fill-rule="nonzero" x="217.642961" y="234.907692" width="88.585071" height="3.33846154"></rect>
                    <g id="Group" opacity="0.5" transform="translate(296.105014, 108.461538)" fill="url(#linearGradient-4)" fill-rule="nonzero">
                        <path d="M107.086821,52.9615385 C105.931665,52.8884615 104.741854,52.0923077 104.626339,50.9461538 C104.48772,49.5769231 105.781495,48.5730769 106.601656,47.4538462 C108.034049,45.4615385 107.860776,42.5961538 106.567001,40.5307692 C105.273226,38.4653846 103.032223,37.0692308 100.679555,36.3769231 C98.7273415,35.7961538 96.443983,35.4730769 95.2888269,33.7730769 C93.4636802,31.0115385 96.2861116,27.5461538 96.5286944,24.2461538 C96.7597256,21.1038462 94.1567739,18.0230769 91.0147493,17.7076923 C89.1973037,17.5346154 87.0641154,18.0923077 85.7472375,16.8230769 C85.3858227,16.4510096 85.1098892,16.0047667 84.9386282,15.5153846 C84.0915137,13.3192308 84.4881173,10.8730769 84.5959319,8.52307692 C84.7037465,6.17307692 84.3803027,3.52307692 82.5667077,2.02692308 C81.5193661,1.15384615 80.1331788,0.811538462 78.7893472,0.592307692 C74.7116462,-0.0730769231 70.5338316,0.153846154 66.444579,0.753846154 C60.7496594,1.58846154 54.812157,3.35769231 51.0424976,7.7 C47.2728382,12.0423077 46.7799716,19.5807692 51.3312867,23.0846154 C50.9462346,22.7769231 51.1156575,22.0961538 51.6662819,21.2807692 C51.6662819,21.3576923 51.6662819,21.4307692 51.6662819,21.5076923 C51.661875,26.3548716 54.6908403,30.6880335 59.2479565,32.3538462 L59.2479565,33.1653846 C58.4194228,33.3669045 57.6288845,33.700684 56.9068401,34.1538462 C49.1518921,36.0653846 33.6419962,45.6115385 33.6419962,45.6115385 L10.8661684,49.4576923 C10.8661684,49.4576923 -0.300340587,51.1730769 0.123216651,52.8923077 C0.546773888,54.6115385 10.8661684,53.3230769 10.8661684,53.3230769 L33.8961306,53.3230769 C35.9859803,53.3205557 38.0414144,52.7914054 39.8721381,51.7846154 L52.4633396,44.8615385 C52.4017313,45.8615385 52.3709272,46.8923077 52.3632261,47.9384615 C50.3725071,49.3615385 48.4241438,52.4692308 52.5172469,58.8692308 L52.5480511,58.6923077 C52.5480511,58.75 52.5480511,58.8115385 52.5480511,58.8692308 L47.9697824,79.9538462 C46.575894,80.9846154 45.620965,81.9346154 45.9521097,82.4423077 C46.1446358,82.7346154 46.6606055,82.7884615 47.3652507,82.6923077 L41.0272942,111.923077 L58.785894,133.346154 L61.7507947,150.307692 L58.9591675,152.980769 L48.6012677,154.903846 C48.1225601,154.991486 47.7900993,155.429768 47.8351543,155.91381 C47.8802093,156.397852 48.2878635,156.7674 48.7745412,156.765385 L71.469508,156.765385 L71.469508,152.492308 L71.6774361,152.492308 L71.2923841,147.361538 L78.4659035,142.676923 L76.1132356,139.084615 L75.7782403,139.303846 L70.048666,131.307692 L69.0667833,118.707692 L79.5401987,80.8076923 L79.5401987,80.7653846 L76.9680511,70.1923077 L81.4770104,67.9076923 C84.4127413,66.4178014 85.8032729,62.99707 84.7384011,59.8846154 C84.049158,57.8884615 83.198193,55.5346154 82.2047588,53.1423077 C83.6935264,54.6264255 85.4157074,55.8568304 87.3028477,56.7846154 C94.7651561,60.2884615 103.713765,56.95 110.40597,52.1423077 C109.347077,52.5769231 108.238127,53.0384615 107.086821,52.9615385 Z M74.9426774,61.8576923 L73.3447114,55.2961538 L75.5164049,60.8423077 C75.2276159,61.3461538 75.0119868,61.7230769 74.9388269,61.8615385 L74.9426774,61.8576923 Z M66.0248723,33.2269231 L66.0248723,32.7346154 C67.5098731,32.3726335 68.9078425,31.7188956 70.137228,30.8115385 C70.0310268,32.5397967 70.1986629,34.2739665 70.6339451,35.95 C69.6212583,34.6384615 68.1580605,33.7307692 66.0210218,33.2346154 L66.0248723,33.2269231 Z M53.9650426,108.834615 L63.1446831,82.3230769 L57.5152223,113.796154 L53.9650426,108.834615 Z" id="Shape"></path>
                    </g>
                    <path d="M371.632971,245.873077 L363.589234,251.126923 L354.317181,260.007692 C354.002193,260.311192 353.947262,260.795325 354.186263,261.161538 C354.318506,261.364027 354.525865,261.505746 354.762721,261.555515 C354.999576,261.605285 355.246523,261.559029 355.449234,261.426923 L373.931731,249.365385 L371.632971,245.873077 Z" id="Shape" fill="#333333" fill-rule="nonzero"></path>
                    <path d="M355.010274,150.807692 L336.416112,161.003846 C334.635468,161.98027 332.636996,162.492219 330.605676,162.492308 L308.21105,162.492308 L308.21105,158.730769 L330.355393,154.973077 C330.355393,154.973077 355.429981,139.538462 357.085705,144.546154 C358.741429,149.553846 355.010274,150.807692 355.010274,150.807692 Z" id="Shape" fill="#FF5000" fill-rule="nonzero"></path>
                    <path d="M374.982923,189.207692 L344.121003,189.207692 L348.741627,167.923077 C348.741627,156.338462 346.431315,142.580769 358.032933,142.580769 C369.6307,142.580769 368.379281,150.496154 368.379281,162.076923 L374.982923,189.207692 Z" id="Shape" fill="#FF5000" fill-rule="nonzero"></path>
                    <path d="M355.252857,134.492308 L361.829546,134.492308 L361.829546,143.596154 C361.829546,145.267877 360.472808,146.623077 358.799186,146.623077 L358.283217,146.623077 C356.609595,146.623077 355.252857,145.267877 355.252857,143.596154 L355.252857,134.492308 Z" id="Shape" fill="#FFCAB1" fill-rule="nonzero"></path>
                    <polygon id="Shape" fill="#E0E0E0" fill-rule="nonzero" points="344.121003 189.161538 337.544314 219.484615 364.359338 251.830769 371.440445 246.273077 350.104711 216.453846 359.553888 189.161538"></polygon>
                    <polygon id="Shape" fill="#000000" fill-rule="nonzero" opacity="0.04" points="344.121003 189.161538 337.544314 219.484615 364.359338 251.830769 371.440445 246.273077 350.104711 216.453846 359.553888 189.161538"></polygon>
                    <polygon id="Shape" fill="#E0E0E0" fill-rule="nonzero" points="359.299754 189.161538 352.503586 227.184615 358.044484 258.903846 367.328089 258.903846 364.798297 226.057692 374.982923 189.161538"></polygon>
                    <g id="Group" transform="translate(0.142469, 0.269231)"></g>
                    <path d="M370.470114,170.842308 L349.996897,185.457692 L351.668023,188.380769 L375.602857,176.253846 C378.465665,174.805405 379.819961,171.469474 378.775686,168.438462 C375.92245,160.169231 370.470114,170.842308 370.470114,170.842308 Z" id="Shape" fill="#000000" fill-rule="nonzero" opacity="0.05"></path>
                    <path d="M364.963869,154.007692 L371.717682,171.257692 L350.83246,183.346154 L352.923292,188.773077 L376.858127,176.646154 C379.720935,175.197713 381.07523,171.861781 380.030956,168.830769 C377.17772,160.573077 371.282573,145.980769 366.280747,149.411538 C364.826103,150.451949 364.280531,152.356101 364.963869,154.007692 Z" id="Shape" fill="#000000" fill-rule="nonzero" opacity="0.05"></path>
                    <path d="M364.548013,153.173077 L371.305676,170.426923 L350.83246,184.2 L352.080028,187.961538 L376.430719,175.834615 C379.293527,174.386175 380.647822,171.050243 379.603548,168.019231 C376.750312,159.761538 370.855166,145.169231 365.85334,148.6 C364.413919,149.640872 363.874555,151.530478 364.548013,153.173077 Z" id="Shape" fill="#FF5000" fill-rule="nonzero"></path>
                    <path d="M367.127862,258.907692 L357.501561,258.907692 L344.875705,261.273077 C344.444493,261.354457 344.132332,261.730888 344.132554,262.169231 C344.132554,262.67266 344.541127,263.080769 345.045128,263.080769 L367.11246,263.080769 L367.127862,258.907692 Z" id="Shape" fill="#333333" fill-rule="nonzero"></path>
                    <path d="M365.456736,154.146154 C365.456736,154.146154 370.462412,160.823077 369.634551,165.830769" id="Shape" fill="#000000" fill-rule="nonzero" opacity="0.05"></path>
                    <path d="M355.252857,142.961538 C357.361009,143.730485 359.6509,143.853688 361.829546,143.315385 L361.829546,135.326923 L355.252857,135.326923 L355.252857,142.961538 Z" id="Shape" fill="#000000" fill-rule="nonzero" opacity="0.05"></path>
                    <ellipse id="Oval" fill="#FFCAB1" fill-rule="nonzero" cx="359.12263" cy="131.569231" rx="11.2435194" ry="11.2307692"></ellipse>
                    <path d="M308.21105,158.730769 C308.21105,158.730769 297.348732,160.4 297.764588,162.069231 C298.180445,163.738462 308.21105,162.488462 308.21105,162.488462 L308.21105,158.730769 Z" id="Shape" fill="#FDA57D" fill-rule="nonzero"></path>
                    <path d="M351.109697,184.276923 C351.109697,184.276923 341.387133,189.4 342.330511,190.842308 C343.273888,192.284615 352.341864,187.826923 352.341864,187.826923 L351.109697,184.276923 Z" id="Shape" fill="#FDA57D" fill-rule="nonzero"></path>
                    <path d="M350.83246,156.234615 C350.83246,156.234615 342.411372,158.073077 348.710823,167.919231" id="Shape" fill="#FF5000" fill-rule="nonzero"></path>
                    <path d="M360.859215,157.069231 C360.859215,157.069231 352.438127,158.907692 358.737578,168.753846" id="Shape" fill="#000000" fill-rule="nonzero" opacity="0.05"></path>
                    <path d="M361.278921,157.069231 C361.278921,157.069231 352.857833,158.907692 359.157285,168.753846" id="Shape" fill="#FF5000" fill-rule="nonzero"></path>
                    <path d="M367.48211,135.173077 C365.26036,138.769231 365.395128,143.438462 366.866026,147.4 C368.336925,151.361538 370.997635,154.753846 373.692999,158.011538 C376.21894,161.065385 378.925856,164.146154 382.514541,165.830769 C389.772772,169.238462 398.471097,165.992308 404.982327,161.319231 C403.950388,161.757692 402.868392,162.207692 401.751741,162.134615 C400.63509,162.061538 399.472233,161.288462 399.356717,160.176923 C399.221949,158.846154 400.511873,157.869231 401.281977,156.780769 C402.675866,154.857692 402.506443,152.057692 401.251173,150.030769 C399.995904,148.003846 397.816509,146.676923 395.525449,145.992308 C393.627143,145.426923 391.393841,145.111538 390.300293,143.461538 C388.529054,140.769231 391.270624,137.407692 391.505506,134.2 C391.732687,131.146154 389.195194,128.15 386.145582,127.857692 C384.378193,127.688462 382.295061,128.242308 381.02439,126.996154 C380.678366,126.632549 380.415599,126.198163 380.254286,125.723077 C379.430274,123.588462 379.815326,121.207692 379.91929,118.923077 C380.023254,116.638462 379.707512,114.069231 377.947824,112.607692 C376.927436,111.761538 375.583605,111.426923 374.274428,111.215385 C370.308392,110.569231 366.246093,110.788462 362.272356,111.373077 C356.731457,112.184615 350.963377,113.903846 347.293832,118.126923 C343.624286,122.35 343.146821,129.665385 347.57492,133.103846 C346.007758,131.892308 353.64719,124.757692 357.235875,126.95 C361.321277,129.426923 361.405989,135.411538 367.48211,135.173077 Z" id="Shape" fill="#333333" fill-rule="nonzero"></path>
                </g>
            </g>
        </g>
    </g>
</svg>