<?xml version="1.0" encoding="UTF-8"?>
<svg width="242px" height="40px" viewBox="0 0 242 40" version="1.1" xmlns="http://www.w3.org/2000/svg" xmlns:xlink="http://www.w3.org/1999/xlink">
    <!-- Generator: Sketch 49.1 (51147) - http://www.bohemiancoding.com/sketch -->
    <title>Group 2</title>
    <desc>Created with Sketch.</desc>
    <defs>
        <linearGradient x1="49.7347209%" y1="-10.3473314%" x2="50.2591588%" y2="108.901149%" id="linearGradient-1">
            <stop stop-color="#FFA900" offset="0%"></stop>
            <stop stop-color="#FD0000" offset="100%"></stop>
        </linearGradient>
    </defs>
    <g id="Page-1" stroke="none" stroke-width="1" fill="none" fill-rule="evenodd">
        <g id="Desktop-HD" transform="translate(-24.000000, -24.000000)">
            <g id="Group-2" transform="translate(24.000000, 24.000000)">
                <path d="M212.048,15.448 L214.224,15.448 L214.448,17.24 L214.544,17.24 C215.248004,16.6426637 216.021329,16.1306688 216.864,15.704 C217.706671,15.2773312 218.586662,15.064 219.504,15.064 C220.506672,15.064 221.391996,15.2506648 222.16,15.624 C222.928004,15.9973352 223.567997,16.5306632 224.08,17.224 C224.592003,17.9173368 224.981332,18.7493285 225.248,19.72 C225.514668,20.6906715 225.648,21.7839939 225.648,23 C225.648,24.3226733 225.466668,25.5013282 225.104,26.536 C224.741332,27.5706718 224.25067,28.450663 223.632,29.176 C223.01333,29.901337 222.298671,30.4506648 221.488,30.824 C220.677329,31.1973352 219.824004,31.384 218.928,31.384 C218.202663,31.384 217.48267,31.2240016 216.768,30.904 C216.05333,30.5839984 215.333337,30.1466694 214.608,29.592 L214.672,32.312 L214.672,37.56 L212.048,37.56 L212.048,15.448 Z M218.48,29.176 C219.120003,29.176 219.711997,29.0320014 220.256,28.744 C220.800003,28.4559986 221.269331,28.0506693 221.664,27.528 C222.058669,27.0053307 222.367999,26.3600038 222.592,25.592 C222.816001,24.8239962 222.928,23.9600048 222.928,23 C222.928,22.1466624 222.853334,21.3680035 222.704,20.664 C222.554666,19.9599965 222.314668,19.3573358 221.984,18.856 C221.653332,18.3546642 221.226669,17.9653347 220.704,17.688 C220.181331,17.4106653 219.557337,17.272 218.832,17.272 C218.170663,17.272 217.504003,17.4533315 216.832,17.816 C216.159997,18.1786685 215.440004,18.7013299 214.672,19.384 L214.672,27.544 C215.376004,28.1413363 216.058663,28.5626654 216.72,28.808 C217.381337,29.0533346 217.967997,29.176 218.48,29.176 Z M229.936,37.688 C229.573332,37.688 229.242668,37.6613336 228.944,37.608 C228.645332,37.5546664 228.368001,37.4746672 228.112,37.368 L228.624,35.288 L229.2,35.432 C229.413334,35.4853336 229.615999,35.512 229.808,35.512 C230.704004,35.512 231.434664,35.1973365 232,34.568 C232.565336,33.9386635 233.007998,33.1440048 233.328,32.184 L233.68,31.032 L227.44,15.448 L230.16,15.448 L233.328,24.056 C233.562668,24.7386701 233.813332,25.4586629 234.08,26.216 C234.346668,26.9733371 234.597332,27.714663 234.832,28.44 L234.96,28.44 C235.194668,27.7359965 235.418666,27.0000038 235.632,26.232 C235.845334,25.4639962 236.058666,24.7386701 236.272,24.056 L239.056,15.448 L241.616,15.448 L235.76,32.28 C235.482665,33.0480038 235.173335,33.7626634 234.832,34.424 C234.490665,35.0853366 234.085336,35.6559976 233.616,36.136 C233.146664,36.6160024 232.613336,36.9946653 232.016,37.272 C231.418664,37.5493347 230.725337,37.688 229.936,37.688 Z" id="py" fill="#FF5000"></path>
                <path d="M57.9911111,10.008 L60.6471111,10.008 L60.6471111,28.728 L69.8311111,28.728 L69.8311111,31 L57.9911111,31 L57.9911111,10.008 Z M79.2071111,31.384 C78.1617726,31.384 77.1857823,31.1973352 76.2791111,30.824 C75.3724399,30.4506648 74.5831145,29.9173368 73.9111111,29.224 C73.2391078,28.5306632 72.711113,27.6826717 72.3271111,26.68 C71.9431092,25.6773283 71.7511111,24.5360064 71.7511111,23.256 C71.7511111,21.9759936 71.9484425,20.8293384 72.3431111,19.816 C72.7377798,18.8026616 73.2604412,17.9440035 73.9111111,17.24 C74.561781,16.5359965 75.303107,15.9973352 76.1351111,15.624 C76.9671153,15.2506648 77.8311066,15.064 78.7271111,15.064 C79.7084494,15.064 80.5884406,15.234665 81.3671111,15.576 C82.1457817,15.917335 82.7964418,16.4079968 83.3191111,17.048 C83.8417804,17.6880032 84.2417764,18.4559955 84.5191111,19.352 C84.7964458,20.2480045 84.9351111,21.2506611 84.9351111,22.36 C84.9351111,22.6373347 84.9297778,22.909332 84.9191111,23.176 C84.9084444,23.442668 84.881778,23.671999 84.8391111,23.864 L74.3431111,23.864 C74.4497783,25.5280083 74.9671065,26.8453285 75.8951111,27.816 C76.8231158,28.7866715 78.0337703,29.272 79.5271111,29.272 C80.2737815,29.272 80.9617746,29.1600011 81.5911111,28.936 C82.2204476,28.7119989 82.8231082,28.4186685 83.3991111,28.056 L84.3271111,29.784 C83.644441,30.2106688 82.8871153,30.5839984 82.0551111,30.904 C81.223107,31.2240016 80.2737831,31.384 79.2071111,31.384 Z M82.6311111,21.976 C82.6311111,20.3973254 82.2951145,19.1973374 81.6231111,18.376 C80.9511078,17.5546626 80.0071172,17.144 78.7911111,17.144 C78.2364417,17.144 77.708447,17.2506656 77.2071111,17.464 C76.7057753,17.6773344 76.2524465,17.9919979 75.8471111,18.408 C75.4417758,18.8240021 75.1057791,19.3306637 74.8391111,19.928 C74.5724431,20.5253363 74.3964449,21.2079962 74.3111111,21.976 L82.6311111,21.976 Z M91.9111111,31.384 C90.6097713,31.384 89.5271154,31.0000038 88.6631111,30.232 C87.7991068,29.4639962 87.3671111,28.376007 87.3671111,26.968 C87.3671111,25.2613248 88.1244369,23.9546712 89.6391111,23.048 C91.1537854,22.1413288 93.5750945,21.5066685 96.9031111,21.144 C96.9031111,20.6533309 96.8551116,20.1733357 96.7591111,19.704 C96.6631106,19.2346643 96.497779,18.8186685 96.2631111,18.456 C96.0284433,18.0933315 95.7031132,17.8000011 95.2871111,17.576 C94.871109,17.3519989 94.3431143,17.24 93.7031111,17.24 C92.8071066,17.24 91.9644484,17.410665 91.1751111,17.752 C90.3857738,18.093335 89.6817809,18.4773312 89.0631111,18.904 L88.0391111,17.08 C88.7644481,16.6106643 89.6497726,16.1573355 90.6951111,15.72 C91.7404497,15.2826645 92.8924382,15.064 94.1511111,15.064 C96.0497873,15.064 97.4257735,15.6453275 98.2791111,16.808 C99.1324487,17.9706725 99.5591111,19.522657 99.5591111,21.464 L99.5591111,31 L97.3831111,31 L97.1591111,29.144 L97.0631111,29.144 C96.3164407,29.7626698 95.5164487,30.2906645 94.6631111,30.728 C93.8097735,31.1653355 92.8924494,31.384 91.9111111,31.384 Z M92.6791111,29.272 C93.4257815,29.272 94.1297745,29.0960018 94.7911111,28.744 C95.4524478,28.3919982 96.1564407,27.8746701 96.9031111,27.192 L96.9031111,22.872 C95.6017713,23.0426675 94.5084489,23.2453322 93.6231111,23.48 C92.7377734,23.7146678 92.0231138,23.9919984 91.4791111,24.312 C90.9351084,24.6320016 90.5404457,24.9999979 90.2951111,25.416 C90.0497766,25.8320021 89.9271111,26.2853309 89.9271111,26.776 C89.9271111,27.6720045 90.1937751,28.3119981 90.7271111,28.696 C91.2604471,29.0800019 91.9111073,29.272 92.6791111,29.272 Z M104.455111,15.448 L106.631111,15.448 L106.855111,18.264 L106.951111,18.264 C107.484447,17.2826618 108.129774,16.5040029 108.887111,15.928 C109.644448,15.3519971 110.471107,15.064 111.367111,15.064 C111.985781,15.064 112.540442,15.1706656 113.031111,15.384 L112.519111,17.688 C112.26311,17.6026662 112.028446,17.5386669 111.815111,17.496 C111.601777,17.4533331 111.335113,17.432 111.015111,17.432 C110.353774,17.432 109.665781,17.698664 108.951111,18.232 C108.236441,18.765336 107.612447,19.6933267 107.079111,21.016 L107.079111,31 L104.455111,31 L104.455111,15.448 Z M115.559111,15.448 L117.735111,15.448 L117.959111,17.688 L118.055111,17.688 C118.801782,16.9413296 119.585774,16.3173358 120.407111,15.816 C121.228449,15.3146642 122.183106,15.064 123.271111,15.064 C124.913786,15.064 126.113774,15.5759949 126.871111,16.6 C127.628448,17.6240051 128.007111,19.1386566 128.007111,21.144 L128.007111,31 L125.383111,31 L125.383111,21.496 C125.383111,20.0239926 125.148447,18.9626699 124.679111,18.312 C124.209775,17.6613301 123.463116,17.336 122.439111,17.336 C121.62844,17.336 120.913781,17.5386646 120.295111,17.944 C119.676441,18.3493354 118.972448,18.9466627 118.183111,19.736 L118.183111,31 L115.559111,31 L115.559111,15.448 Z M148.391111,22.424 L147.655111,19.864 C147.313776,18.7546611 146.988446,17.6133392 146.679111,16.44 C146.369776,15.2666608 146.065779,14.1040058 145.767111,12.952 L145.639111,12.952 C145.340443,14.1253392 145.041779,15.2933275 144.743111,16.456 C144.444443,17.6186725 144.124446,18.7546611 143.783111,19.864 L143.047111,22.424 L148.391111,22.424 Z M149.223111,25.336 L142.183111,25.336 L140.551111,31 L136.775111,31 L143.591111,10.072 L147.943111,10.072 L154.759111,31 L150.855111,31 L149.223111,25.336 Z M161.991111,31.384 C160.903106,31.384 159.831116,31.1760021 158.775111,30.76 C157.719106,30.3439979 156.807115,29.8266698 156.039111,29.208 L157.767111,26.84 C158.471115,27.3946694 159.169774,27.8266651 159.863111,28.136 C160.556448,28.4453349 161.30844,28.6 162.119111,28.6 C162.972449,28.6 163.601776,28.4240018 164.007111,28.072 C164.412446,27.7199982 164.615111,27.2666694 164.615111,26.712 C164.615111,26.3919984 164.519112,26.1093346 164.327111,25.864 C164.13511,25.6186654 163.879113,25.400001 163.559111,25.208 C163.23911,25.015999 162.876446,24.8400008 162.471111,24.68 C162.065776,24.5199992 161.660446,24.3546675 161.255111,24.184 C160.743109,23.991999 160.220447,23.7680013 159.687111,23.512 C159.153775,23.2559987 158.679113,22.9466685 158.263111,22.584 C157.847109,22.2213315 157.505779,21.8000024 157.239111,21.32 C156.972443,20.8399976 156.839111,20.2693366 156.839111,19.608 C156.839111,18.2213264 157.351106,17.090671 158.375111,16.216 C159.399116,15.341329 160.796436,14.904 162.567111,14.904 C163.655117,14.904 164.63644,15.0959981 165.511111,15.48 C166.385782,15.8640019 167.143108,16.3013309 167.783111,16.792 L166.087111,19.032 C165.532442,18.6266646 164.972447,18.3013346 164.407111,18.056 C163.841775,17.8106654 163.249781,17.688 162.631111,17.688 C161.841774,17.688 161.260446,17.8533317 160.887111,18.184 C160.513776,18.5146683 160.327111,18.9253309 160.327111,19.416 C160.327111,19.7360016 160.417777,20.0079989 160.599111,20.232 C160.780445,20.4560011 161.020443,20.6533325 161.319111,20.824 C161.617779,20.9946675 161.964442,21.1546659 162.359111,21.304 C162.75378,21.4533341 163.164442,21.6026659 163.591111,21.752 C164.124447,21.944001 164.657775,22.1626654 165.191111,22.408 C165.724447,22.6533346 166.209776,22.9573315 166.647111,23.32 C167.084447,23.6826685 167.436443,24.1253307 167.703111,24.648 C167.969779,25.1706693 168.103111,25.794663 168.103111,26.52 C168.103111,27.2026701 167.969779,27.8373304 167.703111,28.424 C167.436443,29.0106696 167.047114,29.5226645 166.535111,29.96 C166.023109,30.3973355 165.383115,30.7439987 164.615111,31 C163.847107,31.2560013 162.972449,31.384 161.991111,31.384 Z M176.295111,31.384 C175.377773,31.384 174.604448,31.2453347 173.975111,30.968 C173.345775,30.6906653 172.83378,30.3013358 172.439111,29.8 C172.044442,29.2986642 171.756445,28.7013368 171.575111,28.008 C171.393777,27.3146632 171.303111,26.5413376 171.303111,25.688 L171.303111,18.2 L169.063111,18.2 L169.063111,15.448 L171.495111,15.288 L171.943111,11 L175.015111,11 L175.015111,15.288 L179.015111,15.288 L179.015111,18.2 L175.015111,18.2 L175.015111,25.688 C175.015111,27.5226758 175.751104,28.44 177.223111,28.44 C177.500446,28.44 177.78311,28.4080003 178.071111,28.344 C178.359113,28.2799997 178.620443,28.1946672 178.855111,28.088 L179.495111,30.808 C179.068442,30.9573341 178.583114,31.0906661 178.039111,31.208 C177.495108,31.3253339 176.913781,31.384 176.295111,31.384 Z M182.311111,15.288 L185.351111,15.288 L185.607111,18.072 L185.735111,18.072 C186.289781,17.0479949 186.961774,16.2640027 187.751111,15.72 C188.540448,15.1759973 189.351107,14.904 190.183111,14.904 C190.929782,14.904 191.527109,15.0106656 191.975111,15.224 L191.335111,18.424 C191.057776,18.3386662 190.801779,18.2746669 190.567111,18.232 C190.332443,18.1893331 190.044446,18.168 189.703111,18.168 C189.084441,18.168 188.433781,18.4079976 187.751111,18.888 C187.068441,19.3680024 186.48178,20.2053274 185.991111,21.4 L185.991111,31 L182.311111,31 L182.311111,15.288 Z M200.359111,31.384 C199.377773,31.384 198.439116,31.2026685 197.543111,30.84 C196.647107,30.4773315 195.852448,29.9440035 195.159111,29.24 C194.465774,28.5359965 193.916446,27.6720051 193.511111,26.648 C193.105776,25.6239949 192.903111,24.4613398 192.903111,23.16 C192.903111,21.8586602 193.105776,20.6960051 193.511111,19.672 C193.916446,18.6479949 194.465774,17.7840035 195.159111,17.08 C195.852448,16.3759965 196.647107,15.8373352 197.543111,15.464 C198.439116,15.0906648 199.377773,14.904 200.359111,14.904 C201.340449,14.904 202.28444,15.0906648 203.191111,15.464 C204.097782,15.8373352 204.892441,16.3759965 205.575111,17.08 C206.257781,17.7840035 206.807109,18.6479949 207.223111,19.672 C207.639113,20.6960051 207.847111,21.8586602 207.847111,23.16 C207.847111,24.4613398 207.639113,25.6239949 207.223111,26.648 C206.807109,27.6720051 206.257781,28.5359965 205.575111,29.24 C204.892441,29.9440035 204.097782,30.4773315 203.191111,30.84 C202.28444,31.2026685 201.340449,31.384 200.359111,31.384 Z M200.359111,28.376 C201.511117,28.376 202.417774,27.9013381 203.079111,26.952 C203.740448,26.0026619 204.071111,24.7386746 204.071111,23.16 C204.071111,21.559992 203.740448,20.2853381 203.079111,19.336 C202.417774,18.3866619 201.511117,17.912 200.359111,17.912 C199.207105,17.912 198.305781,18.3866619 197.655111,19.336 C197.004441,20.2853381 196.679111,21.559992 196.679111,23.16 C196.679111,24.7386746 197.004441,26.0026619 197.655111,26.952 C198.305781,27.9013381 199.207105,28.376 200.359111,28.376 Z" id="Learn-Astro" fill="#4D4D4D"></path>
                <g id="Group">
                    <path d="M37.0453333,5.88926791 C43.533037,13.6836788 41.4068148,26.2850958 32.274963,34.0251902 C23.1431111,41.7652847 10.4675556,41.68381 3.95259259,33.8893991 C-2.56237037,26.06783 -0.408888889,13.466413 8.72296296,5.75347678 C17.8548148,-1.95945946 30.5303704,-1.90514301 37.0453333,5.88926791 Z" id="path3837" fill="url(#linearGradient-1)" fill-rule="nonzero"></path>
                    <path d="M21.0168889,19.5226975 C15.1834074,14.2811598 11.8577778,21.8039885 14.9653333,26.4480451 C18.3727407,31.5537917 25.7054815,31.4451588 30.0124444,27.6158489 C35.4642963,22.7816846 35.328,14.1182104 30.5576296,8.87667279" id="path5413" stroke="#FFFFFF" stroke-width="2.52427184"></path>
                    <path d="M24.5333333,23.786539 C23.2248889,25.0629756 20.1445926,24.4926528 17.6367407,22.5644188 C15.1288889,20.6090265 14.1748148,18.0018368 15.4832593,16.7525584 C16.7917037,15.4761218 19.872,16.0464445 22.3798519,17.9746786 C24.8877037,19.9029126 25.869037,22.5101023 24.5333333,23.786539 Z" id="path3819" fill="#FFFFFF" fill-rule="nonzero"></path>
                    <polygon id="path3853" stroke="#FFFFFF" stroke-width="0.5" fill="#FFFFFF" fill-rule="nonzero" stroke-linecap="round" stroke-linejoin="round" points="26.1961481 6.73117292 28.7312593 10.9950144 32.6293333 7.13854631 27.6954074 5.07452112"></polygon>
                    <g id="g3804" transform="translate(22.570693, 2.131605)" stroke="#FFFFFF">
                        <polyline id="path3855-7" stroke-width="0.681413874" points="2.77090942 2.53385672 2.35753508 0.0760157016 2.38337098 0.152031403 2.38337098 0.152031403"></polyline>
                        <polyline id="path3855-7-0" stroke-width="0.736089365" points="0.155441874 2.30580961 2.92748862 2.43250245 2.84976768 2.43250245 2.84976768 2.43250245"></polyline>
                        <polyline id="path3855-7-05" stroke-width="0.742964945" points="4.37827944 3.72476938 2.61660487 2.35648675 2.69432581 2.40716388 2.69432581 2.40716388"></polyline>
                    </g>
                    <path d="M12.7573333,34.6226712 C13.4115556,35.192994 15.6195556,36.1163737 16.3828148,37.0669116 C17.1733333,38.0446077 17.037037,39.1852532 17.037037,39.8370506" id="path3942" stroke="#FFFFFF" stroke-width="2.52427184"></path>
                    <path d="M19.5448889,21.7225138 C26.6868148,25.6332983 28.1042963,17.3771976 23.8518519,13.466413 C19.1632593,9.14825505 11.8577778,10.940698 8.50488889,15.747704 C4.19792593,21.8854631 6.56948148,30.5760955 12.7573333,34.6498294 C12.9754074,34.8127788 13.2207407,34.9485699 13.4660741,35.0843611" id="path2987-5" stroke="#FFFFFF" stroke-width="2.52427184"></path>
                </g>
            </g>
        </g>
    </g>
</svg>